<?xml version="1.0" encoding="UTF-8" standalone="no"?>
<!DOCTYPE svg PUBLIC "-//W3C//DTD SVG 1.1//EN" "http://www.w3.org/Graphics/SVG/1.1/DTD/svg11.dtd">
<svg width="100%" height="100%" viewBox="0 0 128 128" version="1.1" xmlns="http://www.w3.org/2000/svg" xmlns:xlink="http://www.w3.org/1999/xlink" xml:space="preserve" xmlns:serif="http://www.serif.com/" style="fill-rule:evenodd;clip-rule:evenodd;stroke-linecap:round;stroke-linejoin:round;">
    <path d="M100,38L100,78C100,90.142 90.142,100 78,100L38,100C25.858,100 16,90.142 16,78L16,38C16,25.858 25.858,16 38,16L78,16C90.142,16 100,25.858 100,38Z" style="fill:rgb(2,163,218);"/>
    <g transform="matrix(0.856476,0,0,0.885441,-6.61598,1.3318)">
        <path d="M38,42L52,42C67,42 76,50 76,64C76,78 67,86 52,86L38,86L38,42ZM51,53L50,53L50,75L51,75C59,75 64,71 64,64C64,57 59,53 51,53Z" style="fill:white;fill-rule:nonzero;"/>
    </g>
    <g transform="matrix(0.856476,0,0,0.885441,12.7959,1.3318)">
        <path d="M78,42L91,42L79,63L92,86L78,86L71,73L64,86L51,86L64,63L52,42L65,42L71,53L78,42Z" style="fill:white;fill-rule:nonzero;"/>
    </g>
    <circle cx="92" cy="92" r="20" style="fill:rgb(87,178,115);"/>
    <path d="M84,92L89,97L100,84" style="fill:none;fill-rule:nonzero;stroke:white;stroke-width:6px;"/>
</svg>
